<?xml version="1.0" standalone="no"?>
<!DOCTYPE svg PUBLIC "-//W3C//DTD SVG 20010904//EN"
 "http://www.w3.org/TR/2001/REC-SVG-20010904/DTD/svg10.dtd">
<svg version="1.0" xmlns="http://www.w3.org/2000/svg"
 width="218.000000pt" height="218.000000pt" viewBox="0 0 218.000000 218.000000"
 preserveAspectRatio="xMidYMid meet">

<g transform="translate(0.000000,218.000000) scale(0.100000,-0.100000)"
fill="#000000" stroke="none">
<path d="M672 2095 c-511 -210 -781 -777 -626 -1311 27 -94 83 -214 142 -303
68 -103 230 -258 329 -315 7 -4 -3 19 -22 51 -109 184 -170 505 -145 770 20
223 81 453 161 613 33 65 44 80 57 74 173 -75 311 -105 484 -108 65 0 118 -4
118 -8 0 -4 -16 -46 -35 -94 -41 -102 -77 -231 -102 -364 -22 -117 -24 -518
-4 -645 43 -264 149 -429 275 -427 90 2 279 82 413 174 83 57 222 198 275 279
209 317 244 704 94 1049 -108 250 -337 473 -586 570 l-55 22 28 -29 c38 -41
48 -80 31 -129 -33 -98 -198 -164 -409 -164 -165 0 -287 36 -364 105 -66 60
-68 127 -6 190 20 19 34 35 33 35 -2 0 -41 -16 -86 -35z"/>
</g>
</svg>
