<?xml version="1.0" encoding="UTF-8"?>
<svg version="1.1" xmlns="http://www.w3.org/2000/svg" width="512" height="512">
<path d="M0 0 C2.06864896 -0.00219111 4.13676651 -0.02044592 6.20532227 -0.03930664 C21.11268449 -0.1046431 35.55886065 0.91456894 47.07446289 11.43530273 C58.15916188 23.73661503 57.51458814 39.28890023 57.44946289 54.81030273 C57.44730774 55.72569824 57.44515259 56.64109375 57.44293213 57.58422852 C57.24049643 111.12086456 40.36174341 163.25856558 8.13696289 206.18530273 C7.68885254 206.79035645 7.24074219 207.39541016 6.77905273 208.01879883 C-11.42520108 232.49572995 -33.98675121 252.40776068 -59.49584961 268.96655273 C-63.03057279 271.26610158 -66.44542263 273.71557624 -69.86303711 276.18530273 C-69.44731445 277.88686523 -69.44731445 277.88686523 -69.02319336 279.62280273 C-68.65708002 281.14358122 -68.29120748 282.66441768 -67.92553711 284.18530273 C-67.74313477 284.9290918 -67.56073242 285.67288086 -67.37280273 286.43920898 C-60.22808636 316.31711383 -64.75707844 348.68860405 -80.73413086 374.94311523 C-110.83233456 420.78074656 -163.09406289 446.25113609 -215.35668945 457.7331543 C-234.14529518 461.58978302 -234.14529518 461.58978302 -240.67553711 459.12280273 C-243.71800863 456.42804225 -244.69921597 454.06470652 -245.86303711 450.18530273 C-245.59137836 444.54672727 -243.82183619 441.05698056 -240.55053711 436.62280273 C-225.98557315 415.76999823 -212.19259221 389.56545333 -207.86303711 364.18530273 C-208.97678711 364.70092773 -210.09053711 365.21655273 -211.23803711 365.74780273 C-216.24763862 367.62529104 -220.69481087 367.3992557 -225.86303711 366.18530273 C-227.55510712 365.22891534 -229.23120604 364.24119342 -230.86303711 363.18530273 C-234.91298372 363.47703618 -236.79971475 365.84413262 -239.48803711 368.68530273 C-244.63713745 374.09100276 -244.63713745 374.09100276 -249.11303711 374.43530273 C-253.14173006 374.1667232 -255.3511181 373.07023102 -258.86303711 371.18530273 C-259.07057617 372.00772461 -259.27811523 372.83014648 -259.49194336 373.67749023 C-263.1918088 387.08369721 -270.05246977 396.86653079 -282.04663086 404.10717773 C-300.09103782 413.9518302 -320.31859358 419.90815012 -339.92553711 425.81030273 C-340.64964783 426.03248474 -341.37375854 426.25466675 -342.11981201 426.48358154 C-358.78571539 431.56752379 -358.78571539 431.56752379 -365.86303711 430.18530273 C-368.96855386 428.46313069 -371.25010375 426.41116946 -372.86303711 423.18530273 C-373.61601303 415.31241527 -371.1797966 408.28146869 -368.92553711 400.81030273 C-368.51674749 399.43199527 -368.10805747 398.05365826 -367.69946289 396.67529297 C-348.81981479 333.48803952 -348.81981479 333.48803952 -329.96850586 322.49780273 C-324.3662006 319.56628199 -319.07237354 317.37940589 -312.86303711 316.18530273 C-313.52303711 315.31905273 -314.18303711 314.45280273 -314.86303711 313.56030273 C-317.05467457 309.86191452 -317.56219969 308.3802782 -316.86303711 304.18530273 C-314.39645564 299.54812957 -311.05486539 296.32080551 -307.15600586 292.89624023 C-305.63329001 291.27951177 -305.63329001 291.27951177 -306.03881836 289.22436523 C-306.81726165 287.17615683 -306.81726165 287.17615683 -307.90209961 285.32592773 C-310.24201657 280.11342978 -309.78321622 272.87782682 -307.96459961 267.55639648 C-306.86303711 265.37280273 -306.86303711 265.37280273 -304.86303711 262.18530273 C-330.89578885 266.8510294 -356.23301727 278.5726377 -378.26147461 293.04077148 C-378.97271484 293.50427002 -379.68395508 293.96776855 -380.41674805 294.4453125 C-381.75209691 295.32531432 -383.07675118 296.22187289 -384.38745117 297.13818359 C-389.08441972 300.25171392 -392.23546266 300.71732133 -397.86303711 300.18530273 C-401.71852071 298.50900552 -403.31854367 297.04376077 -404.86303711 293.18530273 C-405.70516264 285.63457643 -404.4173259 278.29049251 -402.80053711 270.93530273 C-402.46445435 269.38166016 -402.46445435 269.38166016 -402.12158203 267.79663086 C-392.73234556 225.76649596 -374.26477513 187.77653188 -344.86303711 156.18530273 C-344.23913086 155.50725586 -343.61522461 154.82920898 -342.97241211 154.13061523 C-321.39657767 131.55757836 -292.18125373 120.00709346 -261.24194336 119.18530273 C-248.98589507 119.06201574 -237.10951701 120.74571848 -225.29174805 123.95166016 C-220.52498777 125.23270669 -220.52498777 125.23270669 -215.86303711 124.18530273 C-214.20586558 122.34883092 -214.20586558 122.34883092 -212.79663086 119.98608398 C-212.23435791 119.11330811 -211.67208496 118.24053223 -211.09277344 117.34130859 C-210.20561646 115.93377319 -210.20561646 115.93377319 -209.30053711 114.49780273 C-200.54664561 101.00302686 -191.01634392 88.79148225 -179.86303711 77.18530273 C-179.29568848 76.59072266 -178.72833984 75.99614258 -178.14379883 75.38354492 C-170.13494228 67.0322823 -161.91300013 59.38254455 -152.61352539 52.49145508 C-150.85414025 51.17866421 -149.12155532 49.83578855 -147.39038086 48.48608398 C-105.80988078 16.49492958 -52.16378678 -0.00615793 0 0 Z " fill="#ECECEC" transform="translate(429.863037109375,25.814697265625)"/>
<path d="M0 0 C-1.57171567 4.45177844 -3.91423047 8.29007123 -6.4375 12.25 C-6.8814209 12.95326416 -7.3253418 13.65652832 -7.78271484 14.38110352 C-11.30661231 19.94856507 -14.88122594 25.48328495 -18.47045898 31.00878906 C-22.67723593 37.4865711 -26.84047899 43.99179654 -31 50.5 C-35.90367988 58.17078086 -40.8220473 65.83122886 -45.77734375 73.46875 C-49.87773895 79.79576929 -53.938917 86.14769787 -58 92.5 C-62.65464019 99.77861165 -67.3109653 107.05598233 -72 114.3125 C-72.39574219 114.92609375 -72.79148437 115.5396875 -73.19921875 116.171875 C-73.99475883 117.40086549 -74.80186974 118.62243029 -75.61938477 119.83691406 C-76.68713496 121.50981711 -77.66914277 123.23761536 -78.61303711 124.98339844 C-82.94839177 132.49382167 -86.47273765 135.47637705 -94.84594727 137.74560547 C-96.07240967 138.03580566 -97.29887207 138.32600586 -98.5625 138.625 C-101.17337797 139.32533934 -103.77383009 140.06141118 -106.375 140.796875 C-107.34833031 141.06593155 -107.34833031 141.06593155 -108.34132385 141.34042358 C-127.06409337 146.59402078 -145.28870075 156.30454666 -161.51953125 166.91796875 C-162.2350415 167.38332031 -162.95055176 167.84867188 -163.68774414 168.328125 C-165.01301286 169.20170097 -166.32723699 170.09239942 -167.62670898 171.00390625 C-172.27783625 174.10086247 -175.42034686 174.52053368 -181 174 C-184.8554836 172.32370278 -186.45550656 170.85845804 -188 167 C-188.84212553 159.44927369 -187.55428879 152.10518978 -185.9375 144.75 C-185.60141724 143.19635742 -185.60141724 143.19635742 -185.25854492 141.61132812 C-175.86930845 99.58119322 -157.40173802 61.59122915 -128 30 C-127.37609375 29.32195312 -126.7521875 28.64390625 -126.109375 27.9453125 C-106.77475533 7.71707595 -79.54058577 -5.18496339 -51.5625 -6.93359375 C-34.12283337 -7.25867526 -16.53872377 -5.9104734 0 0 Z " fill="#F34624" transform="translate(213,152)"/>
<path d="M0 0 C0.99 0.495 0.99 0.495 2 1 C2.78822923 3.69187719 3.45786896 6.32901595 4.0625 9.0625 C4.23587891 9.80177734 4.40925781 10.54105469 4.58789062 11.30273438 C11.43592709 41.29241132 7.15519969 73.42238532 -8.87109375 99.7578125 C-38.96929745 145.59544382 -91.23102578 171.06583335 -143.49365234 182.54785156 C-162.28225807 186.40448028 -162.28225807 186.40448028 -168.8125 183.9375 C-171.85497152 181.24273951 -172.83617886 178.87940378 -174 175 C-173.72834125 169.36142454 -171.95879908 165.87167783 -168.6875 161.4375 C-155.11367642 142.00372109 -145.49957255 120.56272888 -138.32421875 98.05078125 C-137.98922363 97.04494995 -137.98922363 97.04494995 -137.64746094 96.01879883 C-137.21224571 94.66178725 -136.82002829 93.29030494 -136.46972656 91.90893555 C-134.63067114 85.56449435 -130.95188955 83.35320819 -125.375 80.1875 C-123.63474709 79.14564887 -121.89517572 78.10265855 -120.15625 77.05859375 C-119.28355469 76.54409668 -118.41085938 76.02959961 -117.51171875 75.49951172 C-113.9025546 73.34481827 -110.38922791 71.0551055 -106.875 68.75 C-99.93621677 64.24020343 -92.97151414 59.77150061 -86 55.3125 C-84.94409668 54.63711182 -83.88819336 53.96172363 -82.80029297 53.26586914 C-78.43750513 50.47588244 -74.07420952 47.68669035 -69.7109375 44.89746094 C-53.60876194 34.60356349 -53.60876194 34.60356349 -37.5534668 24.23681641 C-29.90921673 19.28174575 -22.22945888 14.38194801 -14.55078125 9.48046875 C-9.67091885 6.36277888 -4.79912263 3.24085829 0 0 Z " fill="#F34624" transform="translate(358,301)"/>
<path d="M0 0 C3.54702885 2.80585865 6.79546528 5.81148795 10 9 C11.06734375 10.01513672 11.06734375 10.01513672 12.15625 11.05078125 C22.6818228 21.7990104 27.94172324 37.43866919 28.4375 52.25 C27.98856954 71.31978525 20.41717949 88.02047906 6.65625 101.25390625 C0.43233702 106.57858505 -6.40403004 110.01618329 -14 113 C-14.97005981 113.40387939 -14.97005981 113.40387939 -15.9597168 113.81591797 C-22.50289403 116.31428956 -28.73302853 116.53939924 -35.6875 116.5 C-36.83927734 116.49500488 -37.99105469 116.49000977 -39.17773438 116.48486328 C-48.04846846 116.30329123 -55.05097844 115.15017977 -63 111 C-63.89203125 110.55398437 -64.7840625 110.10796875 -65.703125 109.6484375 C-80.73323991 101.39570569 -91.9766288 87.8328421 -96.76855469 71.40600586 C-101.26963764 54.59967323 -99.99812692 37.21735541 -91.66796875 21.75 C-89.10462131 17.52377846 -86.25040223 13.71886375 -83 10 C-82.49082031 9.39671875 -81.98164063 8.7934375 -81.45703125 8.171875 C-61.20834708 -14.02668246 -24.37708613 -16.7732244 0 0 Z " fill="#00ADFE" transform="translate(369,127)"/>
<path d="M0 0 C2.82384367 1.28596263 4.87568428 2.62707571 7.06256104 4.822052 C7.64022217 5.39696381 8.2178833 5.97187561 8.81304932 6.56420898 C9.43451843 7.19286865 10.05598755 7.82152832 10.69628906 8.46923828 C11.36011597 9.13277313 12.02394287 9.79630798 12.70788574 10.47994995 C14.89857333 12.6720297 17.08209364 14.87110625 19.265625 17.0703125 C20.78404837 18.59246639 22.30291421 20.11417902 23.82220459 21.63546753 C27.8181963 25.63909255 31.80814529 29.64868759 35.796875 33.6595459 C39.86877055 37.75190629 43.94633926 41.83860529 48.0234375 45.92578125 C56.02119471 53.94498305 64.01258103 61.97050181 72 70 C70.32142583 73.58205841 68.33406969 75.9040387 65.5 78.6875 C64.7059375 79.47511719 63.911875 80.26273437 63.09375 81.07421875 C60.37730995 83.57273544 59.48172406 83.9629443 55.75 84.25 C51.72130705 83.98142047 49.51191901 82.88492828 46 81 C45.79246094 81.82242188 45.58492188 82.64484375 45.37109375 83.4921875 C41.67122831 96.89839448 34.81056734 106.68122806 22.81640625 113.921875 C4.77199929 123.76652746 -15.45555647 129.72284739 -35.0625 135.625 C-36.14866608 135.95827301 -36.14866608 135.95827301 -37.2567749 136.29827881 C-53.92267828 141.38222105 -53.92267828 141.38222105 -61 140 C-64.10551675 138.27782795 -66.38706664 136.22586672 -68 133 C-68.75297592 125.12711253 -66.31675949 118.09616596 -64.0625 110.625 C-63.65371038 109.24669254 -63.24502036 107.86835553 -62.83642578 106.48999023 C-43.95677768 43.30273679 -43.95677768 43.30273679 -25.10546875 32.3125 C-19.50316349 29.38097926 -14.20933644 27.19410316 -8 26 C-8.66 25.13375 -9.32 24.2675 -10 23.375 C-12.19163746 19.67661178 -12.69916258 18.19497546 -12 14 C-9.08390494 8.4108178 -4.52167814 4.32412909 0 0 Z " fill="#FEC435" transform="translate(125,316)"/>
<path d="M0 0 C2.06864896 -0.00219111 4.13676651 -0.02044592 6.20532227 -0.03930664 C21.11268449 -0.1046431 35.55886065 0.91456894 47.07446289 11.43530273 C58.15916188 23.73661503 57.51458814 39.28890023 57.44946289 54.81030273 C57.44623016 56.183396 57.44623016 56.183396 57.44293213 57.58422852 C57.34527792 83.41009843 53.40560146 107.38846396 46.13696289 132.18530273 C42.45035792 130.63823069 40.11113971 128.40374049 37.30355835 125.5856781 C36.83194326 125.1150663 36.36032817 124.64445449 35.87442172 124.15958172 C34.29747629 122.58358788 32.72778598 121.00056261 31.15795898 119.41748047 C30.02806082 118.28538082 28.89771404 117.15372877 27.76695251 116.02249146 C25.33425012 113.58685649 22.90473726 111.14809919 20.47764206 108.70687675 C16.6424525 104.84943188 12.80019718 100.99907775 8.9569397 97.14967346 C2.88181476 91.06316818 -3.18861792 84.97200764 -9.25702798 78.87880808 C-20.1321303 67.95936204 -31.01284214 57.04551238 -41.89875162 46.1368404 C-45.72099129 42.30617636 -49.54040411 38.47272181 -53.35759377 34.63702571 C-55.72816251 32.25583991 -58.10073944 29.87666268 -60.47382927 27.49798965 C-61.57687132 26.39146716 -62.67904021 25.2840735 -63.78028679 24.17576408 C-65.27911417 22.66753341 -66.78095726 21.16237189 -68.28359985 19.65794373 C-69.12461054 18.81341361 -69.96562122 17.9688835 -70.83211708 17.09876156 C-72.71832921 15.13771962 -72.71832921 15.13771962 -74.86303711 14.18530273 C-74.53303711 13.19530273 -74.20303711 12.20530273 -73.86303711 11.18530273 C-72.03491211 10.35742188 -72.03491211 10.35742188 -69.61303711 9.72045898 C-68.70658447 9.479646 -67.80013184 9.23883301 -66.86621094 8.99072266 C-65.87516357 8.74555908 -64.88411621 8.50039551 -63.86303711 8.24780273 C-62.33296021 7.85975464 -62.33296021 7.85975464 -60.77197266 7.46386719 C-40.77253301 2.56402729 -20.58108804 -0.00242959 0 0 Z " fill="#F24726" transform="translate(429.863037109375,25.814697265625)"/>
<path d="M0 0 C3.54702885 2.80585865 6.79546528 5.81148795 10 9 C11.06734375 10.01513672 11.06734375 10.01513672 12.15625 11.05078125 C22.6818228 21.7990104 27.94172324 37.43866919 28.4375 52.25 C27.98856954 71.31978525 20.41717949 88.02047906 6.65625 101.25390625 C0.43233702 106.57858505 -6.40403004 110.01618329 -14 113 C-14.97005981 113.40387939 -14.97005981 113.40387939 -15.9597168 113.81591797 C-22.50289403 116.31428956 -28.73302853 116.53939924 -35.6875 116.5 C-36.83927734 116.49500488 -37.99105469 116.49000977 -39.17773438 116.48486328 C-48.04846846 116.30329123 -55.05097844 115.15017977 -63 111 C-63.89203125 110.55398437 -64.7840625 110.10796875 -65.703125 109.6484375 C-80.73323991 101.39570569 -91.9766288 87.8328421 -96.76855469 71.40600586 C-101.26963764 54.59967323 -99.99812692 37.21735541 -91.66796875 21.75 C-89.10462131 17.52377846 -86.25040223 13.71886375 -83 10 C-82.49082031 9.39671875 -81.98164063 8.7934375 -81.45703125 8.171875 C-61.20834708 -14.02668246 -24.37708613 -16.7732244 0 0 Z M-59 10 C-59.88816406 10.53109375 -60.77632813 11.0621875 -61.69140625 11.609375 C-72.50911646 18.63846837 -80.12161027 28.85869664 -83.671875 41.3671875 C-85.48503264 55.91561907 -84.66639705 69.79386288 -75.625 81.9375 C-74.43762729 83.31008255 -73.23011703 84.66559043 -72 86 C-71.48953125 86.61230469 -70.9790625 87.22460938 -70.453125 87.85546875 C-62.91636206 96.30634403 -52.17287678 101.12998091 -41 102 C-39.93265625 102.10441406 -38.8653125 102.20882812 -37.765625 102.31640625 C-25.44719986 102.97134514 -13.25307987 98.9930381 -3.88671875 90.83984375 C2.30911625 84.79794254 6.5669974 78.98518919 10 71 C10.32097656 70.31550781 10.64195312 69.63101563 10.97265625 68.92578125 C15.19220157 58.62224034 14.09473065 45.14515356 10 35 C3.89644443 21.95101912 -4.6385408 13.09489855 -17.8125 7 C-30.74650686 2.45143778 -47.20945327 2.80576809 -59 10 Z " fill="#2D3845" transform="translate(369,127)"/>
<path d="M0 0 C2.82384367 1.28596263 4.87568428 2.62707571 7.06256104 4.822052 C7.64022217 5.39696381 8.2178833 5.97187561 8.81304932 6.56420898 C9.43451843 7.19286865 10.05598755 7.82152832 10.69628906 8.46923828 C11.69202942 9.46454056 11.69202942 9.46454056 12.70788574 10.47994995 C14.89857333 12.6720297 17.08209364 14.87110625 19.265625 17.0703125 C20.78404837 18.59246639 22.30291421 20.11417902 23.82220459 21.63546753 C27.8181963 25.63909255 31.80814529 29.64868759 35.796875 33.6595459 C39.86877055 37.75190629 43.94633926 41.83860529 48.0234375 45.92578125 C56.02119471 53.94498305 64.01258103 61.97050181 72 70 C70.32142583 73.58205841 68.33406969 75.9040387 65.5 78.6875 C64.7059375 79.47511719 63.911875 80.26273437 63.09375 81.07421875 C60.39255793 83.55871071 59.45284611 83.9564571 55.75 84.3125 C50.6813755 83.89011462 47.93533948 82.15320247 44.53201294 78.36676025 C44.00856293 77.74589539 43.48511292 77.12503052 42.94580078 76.48535156 C38.48701679 71.3327392 33.68885358 66.54532306 28.8671875 61.734375 C27.90253395 60.76904592 26.93802873 59.8035686 25.97366333 58.83795166 C23.96664432 56.82946955 21.95785646 54.82277874 19.94775391 52.81738281 C17.38124988 50.25659847 14.81929392 47.69131816 12.25863457 45.12469101 C10.27352909 43.135962 8.28603579 41.14963304 6.29782486 39.16400909 C4.89567912 37.76284664 3.49553255 36.35968451 2.09542847 34.95648193 C1.23748688 34.1016925 0.37954529 33.24690308 -0.50439453 32.36621094 C-1.25383331 31.61756775 -2.00327209 30.86892456 -2.77542114 30.09759521 C-5.02068415 27.92308074 -5.02068415 27.92308074 -7.69894409 25.84429932 C-11.03845906 23.1676737 -11.82647452 21.33036204 -12.375 17.125 C-11.48439813 9.70331774 -5.13850188 4.91400422 0 0 Z " fill="#2D3642" transform="translate(125,316)"/>
<path d="M0 0 C2.96989969 1.33980857 5.08586748 2.82337598 7.4074707 5.10107422 C8.05106033 5.72867645 8.69464996 6.35627869 9.35774231 7.00289917 C10.38142159 8.01853439 10.38142159 8.01853439 11.42578125 9.0546875 C12.13276657 9.75264435 12.83975189 10.4506012 13.56816101 11.16970825 C15.05768135 12.64474044 16.5444223 14.12258388 18.02856445 15.60302734 C20.30942504 17.87194115 22.60826901 20.12153751 24.90820312 22.37109375 C26.35270763 23.80613991 27.79610605 25.24230049 29.23828125 26.6796875 C29.93085526 27.35272919 30.62342926 28.02577087 31.33699036 28.71920776 C31.96481918 29.35311432 32.59264801 29.98702087 33.23950195 30.64013672 C33.79813431 31.19369843 34.35676666 31.74726013 34.93232727 32.31759644 C36 34 36 34 35.73429871 36.10305786 C32.98354224 43.20919303 27.038773 46.28794986 20.50610352 49.45263672 C14.98465646 51.88943997 9.33739804 53.85192276 3.60693359 55.72509766 C1.60167361 56.38264903 -0.39634654 57.05956986 -2.39453125 57.73828125 C-3.68711618 58.16782338 -4.98007225 58.59625067 -6.2734375 59.0234375 C-7.42247559 59.40419434 -8.57151367 59.78495117 -9.75537109 60.17724609 C-13.02803543 61.00710906 -15.64188305 61.29296614 -19 61 C-21.875 59.125 -21.875 59.125 -24 56 C-25.22580722 48.33937938 -22.95710753 41.39968004 -20.4375 34.25 C-20.07615967 33.20030029 -19.71481934 32.15060059 -19.3425293 31.0690918 C-15.06093096 18.91931888 -10.91885225 7.68363677 0 0 Z " fill="#F24624" transform="translate(126,351)"/>
</svg>
