<?xml version="1.0" encoding="UTF-8"?>
<svg version="1.1" xmlns="http://www.w3.org/2000/svg" width="512" height="512">
<path d="M0 0 C1.45108658 0.00273422 1.45108658 0.00273422 2.93148804 0.00552368 C17.26440977 0.05095174 31.21023917 0.55983928 45.3125 3.3125 C46.65803955 3.55395752 46.65803955 3.55395752 48.03076172 3.80029297 C107.84088904 14.62287989 165.35495829 48.68064457 202.3125 97.3125 C202.72918945 97.85277832 203.14587891 98.39305664 203.57519531 98.94970703 C211.2584873 108.9447116 218.00092968 119.40459036 224.3125 130.3125 C224.70679199 130.98974121 225.10108398 131.66698242 225.50732422 132.36474609 C238.68961173 155.2833756 247.29510918 180.85822563 252.625 206.6875 C252.77243652 207.39817627 252.91987305 208.10885254 253.07177734 208.84106445 C256.05713787 224.48358366 256.6873098 240.11919606 256.625 256 C256.62226578 257.45108658 256.62226578 257.45108658 256.61947632 258.93148804 C256.57404826 273.26440977 256.06516072 287.21023917 253.3125 301.3125 C253.15152832 302.20952637 252.99055664 303.10655273 252.82470703 304.03076172 C243.07391834 357.91768519 215.79135039 403.75998446 177.5625 442.1875 C176.94874512 442.80592773 176.33499023 443.42435547 175.70263672 444.06152344 C172.72566527 447.02806627 169.77558528 449.72287247 166.421875 452.2578125 C163.7630888 454.54273601 163.34885327 455.17401133 162.41015625 458.75 C162.34682863 460.26986291 162.3198929 461.7913363 162.3125 463.3125 C162.20709025 465.68750262 162.10161502 468.06250233 161.99609375 470.4375 C161.91035641 473.06238157 161.82841907 475.68738961 161.75 478.3125 C161.70671865 479.67318789 161.66310161 481.03386515 161.61914062 482.39453125 C161.51363317 485.70043157 161.41151744 489.00639999 161.3125 492.3125 C155.37895631 492.39755695 149.68721131 492.14380754 143.8046875 491.40234375 C142.22528353 491.21529955 140.64585572 491.02845653 139.06640625 490.84179688 C136.61954084 490.54645161 134.17308252 490.24821892 131.72705078 489.94604492 C129.33712551 489.65285973 126.94607967 489.37077532 124.5546875 489.08984375 C123.83159393 488.99718735 123.10850037 488.90453094 122.36349487 488.80906677 C115.70019567 488.03628873 110.1522533 488.70608159 104.00390625 491.3515625 C103.02188232 491.76390137 102.0398584 492.17624023 101.02807617 492.60107422 C99.98756104 493.04209473 98.9470459 493.48311523 97.875 493.9375 C82.29828347 500.33776028 66.43394813 505.22094512 49.9375 508.625 C49.22682373 508.77243652 48.51614746 508.91987305 47.78393555 509.07177734 C32.14141634 512.05713787 16.50580394 512.6873098 0.625 512.625 C-0.34239105 512.62317719 -1.3097821 512.62135437 -2.30648804 512.61947632 C-16.63940977 512.57404826 -30.58523917 512.06516072 -44.6875 509.3125 C-45.58452637 509.15152832 -46.48155273 508.99055664 -47.40576172 508.82470703 C-65.76878617 505.50193483 -84.58949334 500.47668323 -101.34204102 492.13378906 C-110.79657492 487.4446306 -118.48359579 487.93251071 -128.6875 489.3125 C-130.75238516 489.56818117 -132.8175029 489.82198894 -134.8828125 490.07421875 C-138.04652069 490.4632228 -141.20735071 490.8605529 -144.36523438 491.29443359 C-149.86848563 492.04161851 -155.13351929 492.46421206 -160.6875 492.3125 C-160.71255615 491.47589844 -160.7376123 490.63929688 -160.76342773 489.77734375 C-160.85922836 486.63873274 -160.95841655 483.50025119 -161.05981445 480.36181641 C-161.12382741 478.34936399 -161.1840197 476.3367912 -161.24414062 474.32421875 C-161.32756538 471.77013791 -161.42551742 469.21648249 -161.53930664 466.66357422 C-161.62509246 464.72371243 -161.68870477 462.78208472 -161.69311523 460.84033203 C-161.85649754 456.73144084 -163.00807042 454.58650424 -165.79296875 451.7421875 C-167.13739446 450.53888381 -168.49918342 449.35478275 -169.875 448.1875 C-171.3403502 446.87962764 -172.80385557 445.56968576 -174.265625 444.2578125 C-175.00619141 443.60200195 -175.74675781 442.94619141 -176.50976562 442.27050781 C-185.68775643 434.01854747 -194.19966965 425.1278087 -201.6875 415.3125 C-202.10563965 414.77077148 -202.5237793 414.22904297 -202.95458984 413.67089844 C-210.63609789 403.67737138 -217.37707865 393.21842393 -223.6875 382.3125 C-224.08179199 381.63525879 -224.47608398 380.95801758 -224.88232422 380.26025391 C-238.06461173 357.3416244 -246.67010918 331.76677437 -252 305.9375 C-252.14743652 305.22682373 -252.29487305 304.51614746 -252.44677734 303.78393555 C-255.43213787 288.14141634 -256.0623098 272.50580394 -256 256.625 C-255.99817719 255.65760895 -255.99635437 254.6902179 -255.99447632 253.69351196 C-255.94904826 239.36059023 -255.44016072 225.41476083 -252.6875 211.3125 C-252.44604248 209.96696045 -252.44604248 209.96696045 -252.19970703 208.59423828 C-241.37712011 148.78411096 -207.31935543 91.27004171 -158.6875 54.3125 C-158.14722168 53.89581055 -157.60694336 53.47912109 -157.05029297 53.04980469 C-147.0552884 45.3665127 -136.59540964 38.62407032 -125.6875 32.3125 C-125.01025879 31.91820801 -124.33301758 31.52391602 -123.63525391 31.11767578 C-100.7166244 17.93538827 -75.14177437 9.32989082 -49.3125 4 C-48.60182373 3.85256348 -47.89114746 3.70512695 -47.15893555 3.55322266 C-31.51641634 0.56786213 -15.88080394 -0.0623098 0 0 Z " fill="#FE757C" transform="translate(255.6875,-0.3125)"/>
<path d="M0 0 C0.89284698 -0.00570007 1.78569397 -0.01140015 2.70559692 -0.01727295 C4.5862716 -0.02665349 6.46696219 -0.03322899 8.34765625 -0.03710938 C11.15395703 -0.04673318 13.95949782 -0.07779003 16.765625 -0.109375 C33.81632312 -0.20926423 54.69594698 0.39094224 70.3203125 8.203125 C80.73484394 8.96172771 89.93834442 8.51065424 99.8483429 5.16444397 C104.70819828 3.56353259 109.37190639 2.57997766 114.45703125 2.05859375 C115.60791229 1.93699638 115.60791229 1.93699638 116.78204346 1.8129425 C126.69431256 0.85992545 136.62088614 0.85211481 146.5703125 0.890625 C148.07999603 0.89385773 148.07999603 0.89385773 149.62017822 0.89715576 C174.1535162 0.98106276 197.81044697 3.31622284 221.85693359 8.22119141 C223.75499756 8.60476807 223.75499756 8.60476807 225.69140625 8.99609375 C227.3609436 9.34450317 227.3609436 9.34450317 229.06420898 9.69995117 C232.53248714 10.23591288 235.815698 10.21646968 239.3203125 10.203125 C240.99588629 10.48832905 242.66848495 10.80268196 244.3203125 11.203125 C244.43790492 28.90530677 244.29302252 46.52064648 243.3203125 64.203125 C242.30195313 64.1309375 241.28359375 64.05875 240.234375 63.984375 C229.58136449 63.27163333 218.99495686 63.09076032 208.3203125 63.203125 C207.64357803 66.60633434 207.64357803 66.60633434 207.3203125 70.203125 C210.04956522 72.93237772 211.9002356 72.65246641 215.71875 72.984375 C217.00265625 73.10425781 218.2865625 73.22414063 219.609375 73.34765625 C220.97127151 73.46709215 222.33325218 73.585572 223.6953125 73.703125 C226.35002209 73.93344517 229.00298029 74.17462642 231.65625 74.421875 C233.42814697 74.5755957 233.42814697 74.5755957 235.23583984 74.73242188 C238.05655522 75.16287456 239.89781001 75.74798012 242.3203125 77.203125 C235.75958499 77.41823082 229.45250517 76.94706025 222.9453125 76.203125 C212.14735354 74.86249279 212.14735354 74.86249279 201.3203125 75.203125 C199.00468163 77.08812771 199.00468163 77.08812771 199.0703125 80.203125 C199.00468163 83.31812229 199.00468163 83.31812229 201.3203125 85.203125 C203.87898724 85.6688613 206.36719158 86.03796748 208.9453125 86.328125 C210.00492187 86.45767578 210.00492187 86.45767578 211.0859375 86.58984375 C212.82981391 86.80193683 214.5749609 87.00353491 216.3203125 87.203125 C216.3203125 87.533125 216.3203125 87.863125 216.3203125 88.203125 C215.27230469 88.25919922 215.27230469 88.25919922 214.203125 88.31640625 C213.29304688 88.38214844 212.38296875 88.44789063 211.4453125 88.515625 C210.54039062 88.57363281 209.63546875 88.63164062 208.703125 88.69140625 C205.95809649 88.9913289 205.95809649 88.9913289 204.3203125 92.203125 C204.6324889 94.84944787 204.6324889 94.84944787 205.3203125 97.203125 C209.77710603 98.84068171 213.9798262 99.68984157 218.6875 100.2734375 C219.36708771 100.35939178 220.04667542 100.44534607 220.74685669 100.53390503 C222.89567281 100.80436656 225.04541931 101.06637791 227.1953125 101.328125 C228.66152832 101.51115901 230.12767505 101.69474735 231.59375 101.87890625 C235.16849471 102.32672325 238.74412354 102.76697343 242.3203125 103.203125 C241.9903125 104.193125 241.6603125 105.183125 241.3203125 106.203125 C240.67449219 106.07035156 240.02867187 105.93757813 239.36328125 105.80078125 C232.62881724 104.53864504 225.96479952 103.88493895 219.1328125 103.515625 C218.28291748 103.46736572 217.43302246 103.41910645 216.55737305 103.36938477 C214.48000762 103.26963917 212.39988862 103.23068309 210.3203125 103.203125 C208.99286084 104.31571091 208.99286084 104.31571091 209.0703125 107.140625 C209.1528125 108.15125 209.2353125 109.161875 209.3203125 110.203125 C212.21024721 112.12974814 213.61940265 112.625358 216.92578125 113.23828125 C217.82748047 113.40779297 218.72917969 113.57730469 219.65820312 113.75195312 C221.06875977 114.0062207 221.06875977 114.0062207 222.5078125 114.265625 C223.42884766 114.43900391 224.34988281 114.61238281 225.29882812 114.79101562 C230.62830855 115.77823663 235.94000532 116.55290763 241.3203125 117.203125 C241.53477662 171.48102819 241.53477662 171.48102819 240.3203125 196.203125 C234.38676881 196.28818195 228.69502381 196.03443254 222.8125 195.29296875 C221.23309603 195.10592455 219.65366822 194.91908153 218.07421875 194.73242188 C215.62735334 194.43707661 213.18089502 194.13884392 210.73486328 193.83666992 C208.34493801 193.54348473 205.95389217 193.26140032 203.5625 192.98046875 C202.47785965 192.84148415 202.47785965 192.84148415 201.37130737 192.69969177 C194.70800817 191.92691373 189.1600658 192.59670659 183.01171875 195.2421875 C182.02969482 195.65452637 181.0476709 196.06686523 180.03588867 196.49169922 C178.99537354 196.93271973 177.9548584 197.37374023 176.8828125 197.828125 C161.30609597 204.22838528 145.44176063 209.11157012 128.9453125 212.515625 C127.8792981 212.73677979 127.8792981 212.73677979 126.79174805 212.96240234 C111.14922884 215.94776287 95.51361644 216.5779348 79.6328125 216.515625 C78.66542145 216.51380219 77.6980304 216.51197937 76.70132446 216.51010132 C62.36840273 216.46467326 48.42257333 215.95578572 34.3203125 213.203125 C33.42328613 213.04215332 32.52625977 212.88118164 31.60205078 212.71533203 C13.23902633 209.39255983 -5.58168084 204.36730823 -22.33422852 196.02441406 C-31.78876242 191.3352556 -39.47578329 191.82313571 -49.6796875 193.203125 C-51.74457266 193.45880617 -53.8096904 193.71261394 -55.875 193.96484375 C-59.03870819 194.3538478 -62.19953821 194.7511779 -65.35742188 195.18505859 C-70.86067313 195.93224351 -76.12570679 196.35483706 -81.6796875 196.203125 C-82.56538943 169.86291492 -82.80764841 143.55716674 -82.6796875 117.203125 C-81.43880371 116.99163818 -81.43880371 116.99163818 -80.17285156 116.77587891 C-77.09317635 116.24789752 -74.01455362 115.71423972 -70.93652344 115.17675781 C-69.60618637 114.94564816 -68.27545775 114.71678044 -66.94433594 114.49023438 C-65.02697029 114.16350839 -63.11111688 113.82794703 -61.1953125 113.4921875 C-60.04321289 113.29318848 -58.89111328 113.09418945 -57.70410156 112.88916016 C-55.03831168 112.28447259 -53.03145097 111.56068804 -50.6796875 110.203125 C-50.63714394 108.20357754 -50.63887967 106.20270864 -50.6796875 104.203125 C-52.25211155 102.63070095 -53.73206755 102.99458953 -55.9296875 102.953125 C-65.24625013 103.00261537 -74.49660151 104.76063496 -83.6796875 106.203125 C-83.6796875 105.213125 -83.6796875 104.223125 -83.6796875 103.203125 C-82.11287231 102.99949341 -82.11287231 102.99949341 -80.5144043 102.79174805 C-76.6381177 102.28454898 -72.76424076 101.7606521 -68.89086914 101.23168945 C-67.21439612 101.00512151 -65.5373046 100.783082 -63.85961914 100.56567383 C-61.44760899 100.25230524 -59.03829512 99.92269577 -56.62890625 99.58984375 C-55.87880783 99.49595871 -55.12870941 99.40207367 -54.35588074 99.30534363 C-51.40908397 98.8851897 -49.12499352 98.51791309 -46.66723633 96.78051758 C-45.41707175 95.13939918 -45.41707175 95.13939918 -45.9296875 92.578125 C-46.45714395 90.2718843 -46.45714395 90.2718843 -47.6796875 89.203125 C-54.31669841 88.99010158 -60.77197793 89.50341818 -67.3671875 90.203125 C-78.28189622 91.34634998 -78.28189622 91.34634998 -83.6796875 91.203125 C-83.6796875 90.543125 -83.6796875 89.883125 -83.6796875 89.203125 C-82.44814941 89.09242676 -81.21661133 88.98172852 -79.94775391 88.86767578 C-75.3884658 88.455481 -70.83033375 88.03154179 -66.27246094 87.60400391 C-64.29782275 87.42044507 -62.32288373 87.24009339 -60.34765625 87.06298828 C-57.51217216 86.80819328 -54.67796208 86.54196763 -51.84375 86.2734375 C-50.95724762 86.19626495 -50.07074524 86.11909241 -49.15737915 86.0395813 C-47.9263295 85.91968338 -47.9263295 85.91968338 -46.67041016 85.79736328 C-45.94649078 85.73074493 -45.22257141 85.66412659 -44.47671509 85.5954895 C-42.43590418 85.31933824 -42.43590418 85.31933824 -40.6796875 83.203125 C-40.34635417 80.203125 -40.34635417 80.203125 -40.6796875 77.203125 C-42.67383997 74.76050077 -42.67383997 74.76050077 -46.62109375 75.015625 C-52.91671908 75.15661881 -59.16031059 75.84659693 -65.41992188 76.4921875 C-71.5302963 77.09166362 -77.54068871 77.32312172 -83.6796875 77.203125 C-80.2032157 74.88547713 -78.27555665 74.78026492 -74.1484375 74.421875 C-72.86324219 74.30199219 -71.57804687 74.18210937 -70.25390625 74.05859375 C-68.21321909 73.87906837 -66.17228929 73.70248482 -64.13134766 73.52587891 C-62.15726436 73.35221287 -60.18407935 73.16842936 -58.2109375 72.984375 C-57.03080078 72.88189453 -55.85066406 72.77941406 -54.63476562 72.67382812 C-51.50120531 72.38523873 -51.50120531 72.38523873 -48.6796875 70.203125 C-49.1746875 66.738125 -49.1746875 66.738125 -49.6796875 63.203125 C-61.2296875 63.203125 -72.7796875 63.203125 -84.6796875 63.203125 C-85.630668 45.84773086 -85.79433459 28.5765684 -85.6796875 11.203125 C-63.7470558 7.27512743 -41.82797348 3.69561617 -19.6796875 1.203125 C-18.54575562 1.07319656 -18.54575562 1.07319656 -17.38891602 0.94064331 C-11.57948762 0.31065343 -5.84162116 0.03004795 0 0 Z " fill="#15BCB0" transform="translate(176.6796875,295.796875)"/>
<path d="M0 0 C0.89284698 -0.00570007 1.78569397 -0.01140015 2.70559692 -0.01727295 C4.5862716 -0.02665349 6.46696219 -0.03322899 8.34765625 -0.03710938 C11.15395703 -0.04673318 13.95949782 -0.07779003 16.765625 -0.109375 C33.81632312 -0.20926423 54.69594698 0.39094224 70.3203125 8.203125 C76.5903125 8.533125 82.8603125 8.863125 89.3203125 9.203125 C89.3203125 70.583125 89.3203125 131.963125 89.3203125 195.203125 C67.55084883 195.203125 67.55084883 195.203125 59.2578125 193.265625 C48.3608401 190.87690061 37.90410243 190.04374311 26.74609375 190 C24.96109215 189.98961449 24.96109215 189.98961449 23.14002991 189.97901917 C19.30425711 189.96177206 15.46862229 189.95542762 11.6328125 189.953125 C10.32652893 189.95178558 9.02024536 189.95044617 7.67437744 189.94906616 C-11.66531451 189.95337662 -30.50941105 190.59575741 -49.6796875 193.203125 C-53.09424345 193.63642706 -56.5096671 194.06228469 -59.92529297 194.48706055 C-61.96072799 194.74440903 -63.99508066 195.01057869 -66.02783203 195.28833008 C-71.30302942 195.99678975 -76.35646043 196.33387093 -81.6796875 196.203125 C-82.56538943 169.86291492 -82.80764841 143.55716674 -82.6796875 117.203125 C-81.43880371 116.99163818 -81.43880371 116.99163818 -80.17285156 116.77587891 C-77.09317635 116.24789752 -74.01455362 115.71423972 -70.93652344 115.17675781 C-69.60618637 114.94564816 -68.27545775 114.71678044 -66.94433594 114.49023438 C-65.02697029 114.16350839 -63.11111688 113.82794703 -61.1953125 113.4921875 C-60.04321289 113.29318848 -58.89111328 113.09418945 -57.70410156 112.88916016 C-55.03831168 112.28447259 -53.03145097 111.56068804 -50.6796875 110.203125 C-50.63714394 108.20357754 -50.63887967 106.20270864 -50.6796875 104.203125 C-52.25211155 102.63070095 -53.73206755 102.99458953 -55.9296875 102.953125 C-65.24625013 103.00261537 -74.49660151 104.76063496 -83.6796875 106.203125 C-83.6796875 105.213125 -83.6796875 104.223125 -83.6796875 103.203125 C-82.11287231 102.99949341 -82.11287231 102.99949341 -80.5144043 102.79174805 C-76.6381177 102.28454898 -72.76424076 101.7606521 -68.89086914 101.23168945 C-67.21439612 101.00512151 -65.5373046 100.783082 -63.85961914 100.56567383 C-61.44760899 100.25230524 -59.03829512 99.92269577 -56.62890625 99.58984375 C-55.87880783 99.49595871 -55.12870941 99.40207367 -54.35588074 99.30534363 C-51.40908397 98.8851897 -49.12499352 98.51791309 -46.66723633 96.78051758 C-45.41707175 95.13939918 -45.41707175 95.13939918 -45.9296875 92.578125 C-46.45714395 90.2718843 -46.45714395 90.2718843 -47.6796875 89.203125 C-54.31669841 88.99010158 -60.77197793 89.50341818 -67.3671875 90.203125 C-78.28189622 91.34634998 -78.28189622 91.34634998 -83.6796875 91.203125 C-83.6796875 90.543125 -83.6796875 89.883125 -83.6796875 89.203125 C-82.44814941 89.09242676 -81.21661133 88.98172852 -79.94775391 88.86767578 C-75.3884658 88.455481 -70.83033375 88.03154179 -66.27246094 87.60400391 C-64.29782275 87.42044507 -62.32288373 87.24009339 -60.34765625 87.06298828 C-57.51217216 86.80819328 -54.67796208 86.54196763 -51.84375 86.2734375 C-50.95724762 86.19626495 -50.07074524 86.11909241 -49.15737915 86.0395813 C-47.9263295 85.91968338 -47.9263295 85.91968338 -46.67041016 85.79736328 C-45.94649078 85.73074493 -45.22257141 85.66412659 -44.47671509 85.5954895 C-42.43590418 85.31933824 -42.43590418 85.31933824 -40.6796875 83.203125 C-40.34635417 80.203125 -40.34635417 80.203125 -40.6796875 77.203125 C-42.67383997 74.76050077 -42.67383997 74.76050077 -46.62109375 75.015625 C-52.91671908 75.15661881 -59.16031059 75.84659693 -65.41992188 76.4921875 C-71.5302963 77.09166362 -77.54068871 77.32312172 -83.6796875 77.203125 C-80.2032157 74.88547713 -78.27555665 74.78026492 -74.1484375 74.421875 C-72.86324219 74.30199219 -71.57804687 74.18210937 -70.25390625 74.05859375 C-68.21321909 73.87906837 -66.17228929 73.70248482 -64.13134766 73.52587891 C-62.15726436 73.35221287 -60.18407935 73.16842936 -58.2109375 72.984375 C-57.03080078 72.88189453 -55.85066406 72.77941406 -54.63476562 72.67382812 C-51.50120531 72.38523873 -51.50120531 72.38523873 -48.6796875 70.203125 C-49.1746875 66.738125 -49.1746875 66.738125 -49.6796875 63.203125 C-61.2296875 63.203125 -72.7796875 63.203125 -84.6796875 63.203125 C-85.630668 45.84773086 -85.79433459 28.5765684 -85.6796875 11.203125 C-63.7470558 7.27512743 -41.82797348 3.69561617 -19.6796875 1.203125 C-18.54575562 1.07319656 -18.54575562 1.07319656 -17.38891602 0.94064331 C-11.57948762 0.31065343 -5.84162116 0.03004795 0 0 Z " fill="#16BDB0" transform="translate(176.6796875,295.796875)"/>
<path d="M0 0 C0.33 0 0.66 0 1 0 C1.11480713 0.75394043 1.22961426 1.50788086 1.34790039 2.28466797 C3.51063318 16.16546105 5.75234955 29.36650466 11.44921875 42.265625 C13.13439201 46.08900786 14.08156838 49.92813565 15 54 C15.3403125 52.329375 15.3403125 52.329375 15.6875 50.625 C17 47 17 47 19.625 45.5625 C20.40875 45.376875 21.1925 45.19125 22 45 C23 46 23 46 23.265625 49.80859375 C23.1938286 55.85744053 21.50688742 61.3149683 19.75 67.0625 C19.44964844 68.09955078 19.14929688 69.13660156 18.83984375 70.20507812 C17.06453064 76.16182021 14.96482551 81.53606272 12 87 C9.69 86.67 7.38 86.34 5 86 C4.27296875 87.61455078 4.27296875 87.61455078 3.53125 89.26171875 C-10.05515921 119.03677281 -10.05515921 119.03677281 -22 127 C-20.53245315 141.48237021 -18.16745751 151.73648509 -7 162 C-5.36362761 163.04883897 -3.70413523 164.06528032 -2 165 C-3.55985562 170.16836955 -5.75554171 174.8535237 -8.1328125 179.6796875 C-8.52951141 180.49245148 -8.92621033 181.30521545 -9.33493042 182.14260864 C-10.59478952 184.72180012 -11.85980978 187.29842014 -13.125 189.875 C-13.98341568 191.63004073 -14.84149227 193.38524735 -15.69921875 195.140625 C-17.79555867 199.42901373 -19.89652906 203.71510485 -22 208 C-21.07711182 207.59297852 -20.15422363 207.18595703 -19.20336914 206.76660156 C2.58503618 197.23675211 24.64043693 194.7980716 48.27636719 194.86962891 C50.36661078 194.87497853 52.45663792 194.86964795 54.546875 194.86328125 C67.82571081 194.85579808 80.9598972 195.28331192 94 198 C94.33 201.96 94.66 205.92 95 210 C99.29 210.99 103.58 211.98 108 213 C108 216.3 108 219.6 108 223 C102.22564423 222.36777127 96.57548658 221.37932828 90.87158203 220.28588867 C66.60583922 215.69942269 42.89787808 213.73219938 18.25 213.6875 C16.79089203 213.68198624 16.79089203 213.68198624 15.30230713 213.67636108 C5.54204633 213.65707285 -4.15065199 213.82927222 -13.86328125 214.85546875 C-14.56551819 214.92746994 -15.26775513 214.99947113 -15.99127197 215.07365417 C-21.02424809 215.67747962 -25.64267439 217.01221393 -30.4375 218.625 C-42.92923205 222.59985333 -55.3720754 222.54677076 -67.7421875 218.0859375 C-79.38706995 214.20431002 -92.08296988 212.86226873 -104.30859375 212.796875 C-105.18425491 212.78995132 -106.05991608 212.78302765 -106.96211243 212.77589417 C-109.78728744 212.75864455 -112.61227472 212.75230106 -115.4375 212.75 C-116.40296753 212.74866058 -117.36843506 212.74732117 -118.36315918 212.74594116 C-132.51380529 212.75020004 -146.22172755 213.36873621 -160.22021484 215.57666016 C-163.15887195 216.02419497 -166.10024479 216.40109239 -169.05078125 216.76171875 C-179.08660632 217.98881359 -189.0101465 219.42615557 -198.91796875 221.44921875 C-202 222 -202 222 -206 222 C-206 218.7 -206 215.4 -206 212 C-199.07 211.01 -199.07 211.01 -192 210 C-192 206.04 -192 202.08 -192 198 C-173.0070228 188.5035114 -132.51402815 193.37669193 -112 197 C-111.26023926 197.12890625 -110.52047852 197.2578125 -109.75830078 197.390625 C-97.34124131 199.65160274 -85.27823537 203.25818569 -74 209 C-76.00656702 205.10722128 -78.01470857 201.21525974 -80.02416992 197.32397461 C-80.70426651 196.00647737 -81.38396893 194.68877656 -82.06323242 193.37084961 C-83.05277593 191.45109126 -84.04371289 189.53205905 -85.03515625 187.61328125 C-85.36198395 186.97955597 -85.68881165 186.34583069 -86.02554321 185.69290161 C-87.66663883 182.52340647 -89.3337748 179.37264513 -91.05810547 176.24755859 C-91.38419296 175.65444382 -91.71028046 175.06132904 -92.04624939 174.45024109 C-92.94119527 172.82986702 -93.84423908 171.21397308 -94.74780273 169.59838867 C-96 167 -96 167 -96 164 C-94.5390625 162.61328125 -94.5390625 162.61328125 -92.625 161.3125 C-91.99851562 160.87550781 -91.37203125 160.43851563 -90.7265625 159.98828125 C-89 159 -89 159 -87 159 C-86.72027344 158.41605469 -86.44054687 157.83210937 -86.15234375 157.23046875 C-85.0729595 155.14121992 -83.87393551 153.26126866 -82.5625 151.3125 C-79.88571263 147.03279865 -78.20062679 142.89729349 -77 138 C-76.64421875 136.64648438 -76.64421875 136.64648438 -76.28125 135.265625 C-75.71872692 132.27101683 -75.4799806 130.00804328 -76 127 C-77.95009478 124.60710847 -80.07958912 122.93898577 -82.52734375 121.0625 C-90.50887745 114.40491739 -94.64851405 103.03107956 -99.11523438 93.81787109 C-100.38878115 91.20119635 -101.69372583 88.6004532 -103 86 C-106.465 86.495 -106.465 86.495 -110 87 C-112.83080696 81.55944693 -115.18224177 76.1668108 -117.1875 70.375 C-117.44724609 69.65054688 -117.70699219 68.92609375 -117.97460938 68.1796875 C-120.03041624 62.31506016 -121.14695101 56.87437454 -121.0625 50.625 C-121.05347656 49.75101563 -121.04445313 48.87703125 -121.03515625 47.9765625 C-121.02355469 47.32429688 -121.01195312 46.67203125 -121 46 C-119.02 46.33 -117.04 46.66 -115 47 C-115.03480469 46.34773438 -115.06960937 45.69546875 -115.10546875 45.0234375 C-115.27559687 39.5307295 -115.09079722 35.75507264 -112 31 C-110 29 -110 29 -107.84863281 28.84887695 C-106.97561523 28.89488037 -106.10259766 28.94088379 -105.203125 28.98828125 C-103.76453125 29.05885742 -103.76453125 29.05885742 -102.296875 29.13085938 C-101.29140625 29.19080078 -100.2859375 29.25074219 -99.25 29.3125 C-98.26 29.36083984 -97.27 29.40917969 -96.25 29.45898438 C-91.41779749 29.71416084 -86.77289529 30.19788843 -82 31 C-63.85568196 31.94729371 -47.53901533 29.57631399 -31 22 C-29.71802734 21.46632813 -29.71802734 21.46632813 -28.41015625 20.921875 C-17.81837706 16.19875217 -8.07588421 8.24255349 0 0 Z " fill="#FDD097" transform="translate(305,84)"/>
<path d="M0 0 C5.4995179 4.65082687 9.93022723 9.46004931 13 16 C13 16.66 13 17.32 13 18 C13.825 18.185625 14.65 18.37125 15.5 18.5625 C25.27115055 22.57565112 30.76510859 31.3124841 35.21875 40.51953125 C47.01991881 69.6201407 42.43945963 105.49414148 32.31274414 134.17504883 C28.78860281 144.17611107 25.8418885 154.39220493 25 165 C24.88591797 166.299375 24.88591797 166.299375 24.76953125 167.625 C24.08545219 181.5284446 30.12944542 193.02464046 37.01171875 204.63671875 C38.44840667 207.06695116 39.79401839 209.45260568 41 212 C37.58764442 213.48436511 34.51015777 214.36759475 30.82421875 214.8515625 C29.83856934 214.98127441 28.85291992 215.11098633 27.83740234 215.24462891 C-0.94531458 218.72032825 -0.94531458 218.72032825 -6.1640625 215.78125 C-7.91511922 213.95256023 -8.91216247 212.28281058 -10 210 C-10.3815625 209.28585938 -10.763125 208.57171875 -11.15625 207.8359375 C-14.42439264 200.85611858 -16.58969062 192.71800961 -16 185 C-14.12500173 182.31250248 -12.1659539 180.82403123 -9.5078125 178.921875 C-1.86759931 173.06675835 1.98079966 162.30407159 6.10546875 153.796875 C7.91310678 150.09973645 9.92435141 146.55299492 12 143 C14.31 143.33 16.62 143.66 19 144 C22.13009418 137.4906899 24.36442918 130.96506771 26.25 124 C26.518125 123.06671875 26.78625 122.1334375 27.0625 121.171875 C28.68102527 115.25930308 29.27623574 110.12741094 29 104 C26.48313064 104.40311361 26.48313064 104.40311361 24 106 C22.91758097 108.66525288 22.50727893 111.1407915 22 114 C21.67 114 21.34 114 21 114 C20.86464844 113.36578125 20.72929687 112.7315625 20.58984375 112.078125 C19.24588251 106.25161042 17.58159528 100.75970307 15.48681641 95.16601562 C11.06998189 83.32245936 8.78333735 71.49186166 7 59 C6.58387451 59.44077881 6.16774902 59.88155762 5.73901367 60.33569336 C1.57198781 64.64040521 -2.72057479 68.22364615 -7.6875 71.5625 C-8.38738037 72.03574707 -9.08726074 72.50899414 -9.80834961 72.99658203 C-33.72106845 88.90196865 -59.35806946 92.21203304 -87.36791992 88.71191406 C-95.17502498 87.66330551 -95.17502498 87.66330551 -103 88 C-106.49975722 90.77780337 -106.63263332 94.48179477 -107.1875 98.75 C-107.42533203 100.50570312 -107.42533203 100.50570312 -107.66796875 102.296875 C-107.83232422 103.63492188 -107.83232422 103.63492188 -108 105 C-109.98 104.67 -111.96 104.34 -114 104 C-113.34428205 118.38349042 -108.38870011 130.77830927 -103 144 C-100.69 143.67 -98.38 143.34 -96 143 C-95.5153125 143.99257812 -95.030625 144.98515625 -94.53125 146.0078125 C-85.18379779 167.11062582 -85.18379779 167.11062582 -69.76953125 183.43359375 C-68 185 -68 185 -67.65234375 187.2421875 C-68.49836248 195.05337417 -70.63291713 201.90207739 -74 209 C-74.35191406 209.78503906 -74.70382813 210.57007813 -75.06640625 211.37890625 C-76.52392668 213.76000398 -77.49019502 214.74066322 -80 216 C-85.7203762 216.80059441 -91.25970345 216.46586255 -97 216 C-97.81968262 215.93570801 -98.63936523 215.87141602 -99.48388672 215.80517578 C-110.69030923 214.87947518 -121.85280823 213.46345814 -133 212 C-131.29021378 207.20309978 -128.77084804 202.96327884 -126.25 198.5625 C-115.9991126 180.35534122 -109.34754981 162.62728322 -114.1875 141.5625 C-115.28408594 137.75823029 -116.74471621 134.35488542 -118.5 130.8125 C-121.7103281 124.16944156 -122.68173068 117.18991221 -123.7175293 109.94873047 C-123.97125443 108.19831213 -124.26623653 106.45399199 -124.56640625 104.7109375 C-126.12519001 91.36999541 -125.82980486 77.13966716 -123 64 C-122.82855469 62.98808594 -122.65710938 61.97617188 -122.48046875 60.93359375 C-118.34397215 39.18362778 -104.71519474 19.37729442 -87 6.4375 C-62.28249768 -10.37712743 -26.20178274 -18.73924968 0 0 Z " fill="#676666" transform="translate(298,26)"/>
<path d="M0 0 C3.13466714 2.07238962 6.25039796 4.16250021 9.32421875 6.32421875 C9.87787109 6.71287109 10.43152344 7.10152344 11.00195312 7.50195312 C12.13900797 8.30171244 13.27439117 9.10385299 14.40820312 9.90820312 C19.97871245 13.80690661 24.31765321 14.75340184 31 14 C37.20267753 12.11275122 41.89976131 7.80084523 46.703125 3.609375 C49 2 49 2 53 2 C53.29132813 3.0621875 53.58265625 4.124375 53.8828125 5.21875 C57.18159341 16.77678186 61.14928567 24.66274113 71 32 C71.66 32.33 72.32 32.66 73 33 C71.44014438 38.16836955 69.24445829 42.8535237 66.8671875 47.6796875 C66.47048859 48.49245148 66.07378967 49.30521545 65.66506958 50.14260864 C64.40521048 52.72180012 63.14019022 55.29842014 61.875 57.875 C61.01658432 59.63004073 60.15850773 61.38524735 59.30078125 63.140625 C57.20444133 67.42901373 55.10347094 71.71510485 53 76 C53.92288818 75.59297852 54.84577637 75.18595703 55.79663086 74.76660156 C77.58503618 65.23675211 99.64043693 62.7980716 123.27636719 62.86962891 C125.36661078 62.87497853 127.45663792 62.86964795 129.546875 62.86328125 C142.82571081 62.85579808 155.9598972 63.28331192 169 66 C169.33 69.96 169.66 73.92 170 78 C174.29 78.99 178.58 79.98 183 81 C183 84.3 183 87.6 183 91 C177.22564423 90.36777127 171.57548658 89.37932828 165.87158203 88.28588867 C141.60583922 83.69942269 117.89787808 81.73219938 93.25 81.6875 C91.79089203 81.68198624 91.79089203 81.68198624 90.30230713 81.67636108 C80.54204633 81.65707285 70.84934801 81.82927222 61.13671875 82.85546875 C60.43448181 82.92746994 59.73224487 82.99947113 59.00872803 83.07365417 C53.97575191 83.67747962 49.35732561 85.01221393 44.5625 86.625 C32.07076795 90.59985333 19.6279246 90.54677076 7.2578125 86.0859375 C-4.38706995 82.20431002 -17.08296988 80.86226873 -29.30859375 80.796875 C-30.18425491 80.78995132 -31.05991608 80.78302765 -31.96211243 80.77589417 C-34.78728744 80.75864455 -37.61227472 80.75230106 -40.4375 80.75 C-41.88570129 80.74799088 -41.88570129 80.74799088 -43.36315918 80.74594116 C-57.51380529 80.75020004 -71.22172755 81.36873621 -85.22021484 83.57666016 C-88.15887195 84.02419497 -91.10024479 84.40109239 -94.05078125 84.76171875 C-104.08660632 85.98881359 -114.0101465 87.42615557 -123.91796875 89.44921875 C-127 90 -127 90 -131 90 C-131 86.7 -131 83.4 -131 80 C-124.07 79.01 -124.07 79.01 -117 78 C-117 74.04 -117 70.08 -117 66 C-98.0070228 56.5035114 -57.51402815 61.37669193 -37 65 C-36.26023926 65.12890625 -35.52047852 65.2578125 -34.75830078 65.390625 C-22.34124131 67.65160274 -10.27823537 71.25818569 1 77 C-1.00656702 73.10722128 -3.01470857 69.21525974 -5.02416992 65.32397461 C-5.70426651 64.00647737 -6.38396893 62.68877656 -7.06323242 61.37084961 C-8.05277593 59.45109126 -9.04371289 57.53205905 -10.03515625 55.61328125 C-10.36198395 54.97955597 -10.68881165 54.34583069 -11.02554321 53.69290161 C-12.66663883 50.52340647 -14.3337748 47.37264513 -16.05810547 44.24755859 C-16.38419296 43.65444382 -16.71028046 43.06132904 -17.04624939 42.45024109 C-17.94119527 40.82986702 -18.84423908 39.21397308 -19.74780273 37.59838867 C-21 35 -21 35 -21 32 C-19.5390625 30.61328125 -19.5390625 30.61328125 -17.625 29.3125 C-16.99851562 28.87550781 -16.37203125 28.43851563 -15.7265625 27.98828125 C-14 27 -14 27 -12 27 C-11.57654297 26.11248047 -11.57654297 26.11248047 -11.14453125 25.20703125 C-10.11305199 23.21800128 -8.97602793 21.51326434 -7.6875 19.6875 C-3.84978897 13.69107652 -2.06719358 6.75576454 0 0 Z " fill="#FDD097" transform="translate(230,216)"/>
<path d="M0 0 C0.73976074 0.12890625 1.47952148 0.2578125 2.24169922 0.390625 C14.57563988 2.63646794 26.86231518 6.12333213 38 12 C37.67 11.01 37.34 10.02 37 9 C37.6077124 9.14147461 38.2154248 9.28294922 38.84155273 9.42871094 C46.55104364 11.0425067 54.10412508 11.30821339 61.95239258 11.26074219 C64.06295367 11.24999769 66.1726673 11.26071016 68.28320312 11.2734375 C75.72958016 11.27998981 82.77382364 10.90385082 90 9 C90 9.66 90 10.32 90 11 C90.83660156 10.61328125 91.67320312 10.2265625 92.53515625 9.828125 C114.23682546 0.11885107 136.68200158 -2.20180257 160.27636719 -2.13037109 C162.36661078 -2.12502147 164.45663792 -2.13035205 166.546875 -2.13671875 C179.82571081 -2.14420192 192.9598972 -1.71668808 206 1 C206.33 4.96 206.66 8.92 207 13 C211.29 13.99 215.58 14.98 220 16 C220 19.3 220 22.6 220 26 C214.22564423 25.36777127 208.57548658 24.37932828 202.87158203 23.28588867 C178.60583922 18.69942269 154.89787808 16.73219938 130.25 16.6875 C128.79089203 16.68198624 128.79089203 16.68198624 127.30230713 16.67636108 C117.54204633 16.65707285 107.84934801 16.82927222 98.13671875 17.85546875 C97.43448181 17.92746994 96.73224487 17.99947113 96.00872803 18.07365417 C90.97575191 18.67747962 86.35732561 20.01221393 81.5625 21.625 C69.07076795 25.59985333 56.6279246 25.54677076 44.2578125 21.0859375 C32.61293005 17.20431002 19.91703012 15.86226873 7.69140625 15.796875 C6.81574509 15.78995132 5.94008392 15.78302765 5.03788757 15.77589417 C2.21271256 15.75864455 -0.61227472 15.75230106 -3.4375 15.75 C-4.40296753 15.74866058 -5.36843506 15.74732117 -6.36315918 15.74594116 C-20.51380529 15.75020004 -34.22172755 16.36873621 -48.22021484 18.57666016 C-51.15887195 19.02419497 -54.10024479 19.40109239 -57.05078125 19.76171875 C-67.08660632 20.98881359 -77.0101465 22.42615557 -86.91796875 24.44921875 C-90 25 -90 25 -94 25 C-94 21.7 -94 18.4 -94 15 C-87.07 14.01 -87.07 14.01 -80 13 C-80 9.04 -80 5.08 -80 1 C-61.0070228 -8.4964886 -20.51402815 -3.62330807 0 0 Z " fill="#FCFCFC" transform="translate(193,281)"/>
<path d="M0 0 C1.82307678 -0.00855011 1.82307678 -0.00855011 3.6829834 -0.01727295 C6.23754019 -0.02664634 8.79210865 -0.03322606 11.34667969 -0.03710938 C15.18186409 -0.04678197 19.01650395 -0.07786746 22.8515625 -0.109375 C39.31949842 -0.18011904 55.39428289 0.55492056 71.48364258 4.28710938 C74.76360648 5.03620786 77.82093404 5.45963797 81.19921875 5.46875 C82.13572266 5.47132813 83.07222656 5.47390625 84.03710938 5.4765625 C84.98392578 5.46882813 85.93074219 5.46109375 86.90625 5.453125 C87.86466797 5.46085937 88.82308594 5.46859375 89.81054688 5.4765625 C94.91103253 5.46246302 98.90795254 5.03354157 103.71875 3.203125 C106.04265319 2.79160048 108.37785891 2.44080392 110.71875 2.140625 C111.894375 1.98464844 113.07 1.82867187 114.28125 1.66796875 C126.71049124 0.29333331 139.0385987 0.04510623 151.5300293 0.07275391 C154.38400667 0.07808346 157.23782444 0.07279372 160.09179688 0.06640625 C171.99851077 0.06255382 183.83630467 0.44772807 195.71875 1.203125 C195.71875 1.863125 195.71875 2.523125 195.71875 3.203125 C176.36327352 11.69958532 157.097415 18.58488692 136.40625 23.015625 C135.50132812 23.21067627 134.59640625 23.40572754 133.6640625 23.60668945 C117.53350738 26.85775351 101.44516748 27.58002652 85.03125 27.515625 C84.06385895 27.51380219 83.0964679 27.51197937 82.09976196 27.51010132 C67.76684023 27.46467326 53.82101083 26.95578572 39.71875 24.203125 C38.82172363 24.04215332 37.92469727 23.88118164 37.00048828 23.71533203 C15.54073123 19.83220895 -6.94143971 13.50057561 -26.28125 3.203125 C-26.61125 2.543125 -26.94125 1.883125 -27.28125 1.203125 C-18.17652499 0.46084777 -9.13407824 0.03443189 0 0 Z " fill="#FD757C" transform="translate(171.28125,484.796875)"/>
<path d="M0 0 C5.94 0 11.88 0 18 0 C18 61.38 18 122.76 18 186 C12.06 186 6.12 186 0 186 C0 124.62 0 63.24 0 0 Z " fill="#1FCFC1" transform="translate(248,305)"/>
<path d="M0 0 C3.06256821 0.59977101 6.10093165 1.25476697 9.13671875 1.9765625 C13.40526901 2.9317996 17.66425054 3.51880242 22.00488281 4.03833008 C37.88118949 5.94210633 51.79510029 9.33227391 63.4296875 20.99609375 C65.6428151 23.82030882 67.26944219 26.85727705 69 30 C68.10506836 30.01981934 67.21013672 30.03963867 66.28808594 30.06005859 C38.63531999 30.7025683 12.32909167 31.66933944 -14 41 C-15.99863156 41.67075803 -17.99817937 42.33882028 -20 43 C-18.44014438 37.83163045 -16.24445829 33.1464763 -13.8671875 28.3203125 C-13.47048859 27.50754852 -13.07378967 26.69478455 -12.66506958 25.85739136 C-11.40521048 23.27819988 -10.14019022 20.70157986 -8.875 18.125 C-8.01658432 16.36995927 -7.15850773 14.61475265 -6.30078125 12.859375 C-4.20444133 8.57098627 -2.10347094 4.28489515 0 0 Z " fill="#117886" transform="translate(303,249)"/>
<path d="M0 0 C0.73319458 1.42880493 0.73319458 1.42880493 1.48120117 2.88647461 C3.31546964 6.46000345 5.15171584 10.03251304 6.98852539 13.60473633 C7.77942006 15.1435265 8.56979615 16.68258332 9.35961914 18.22192383 C10.50266596 20.4494553 11.64727507 22.67617256 12.79296875 24.90234375 C13.34596146 25.97734634 13.34596146 25.97734634 13.91012573 27.07406616 C16.24269003 31.5890776 18.65175862 36.04697594 21.21606445 40.43579102 C22 42 22 42 22 44 C17.59764882 42.55180748 13.20574919 41.08792337 8.8515625 39.5 C-10.67683763 32.49492356 -30.58000561 31.02084328 -51.1875 30.4375 C-52.63086853 30.39418434 -54.07422803 30.35056654 -55.51757812 30.30664062 C-59.01162173 30.20095142 -62.50576898 30.09932418 -66 30 C-62.45708537 20.79258565 -55.42941234 14.8631225 -47 10 C-38.4316085 6.36425097 -29.6823605 4.99361383 -20.5 3.875 C-18.0304404 3.56630505 -15.56163837 3.25147036 -13.09375 2.9296875 C-12.01802734 2.79804199 -10.94230469 2.66639648 -9.83398438 2.53076172 C-6.16989423 1.84453395 -3.74385374 0 0 0 Z " fill="#117986" transform="translate(209,249)"/>
<path d="M0 0 C8.0379283 0.00927875 16.00350301 0.31426893 24.01391602 1.00268555 C25.37178223 1.10770386 25.37178223 1.10770386 26.75708008 1.21484375 C28.02696777 1.33605591 28.02696777 1.33605591 29.32250977 1.4597168 C30.07201904 1.52779541 30.82152832 1.59587402 31.59375 1.66601562 C34.0575342 2.3173818 35.03613743 3.17924136 36.57641602 5.19018555 C36.97828359 8.40512612 37.15097408 10.32834845 35.32641602 13.06518555 C33.57641602 14.19018555 33.57641602 14.19018555 29.57641602 14.19018555 C29.57641602 14.85018555 29.57641602 15.51018555 29.57641602 16.19018555 C30.54579102 16.31393555 31.51516602 16.43768555 32.51391602 16.56518555 C33.52454102 16.77143555 34.53516602 16.97768555 35.57641602 17.19018555 C37.01376848 20.06489048 36.95814251 22.00913143 36.57641602 25.19018555 C34.07641602 27.56518555 34.07641602 27.56518555 31.57641602 29.19018555 C32.07141602 29.56143555 32.56641602 29.93268555 33.07641602 30.31518555 C35.21768545 32.99177234 34.92426849 34.85080177 34.57641602 38.19018555 C33.91641602 39.18018555 33.25641602 40.17018555 32.57641602 41.19018555 C24.22840244 42.61689408 14.86923936 40.56151585 6.57641602 39.44018555 C5.26801758 39.28291992 3.95961914 39.1256543 2.61157227 38.96362305 C1.3624707 38.79604492 0.11336914 38.6284668 -1.17358398 38.45581055 C-2.86741211 38.23586426 -2.86741211 38.23586426 -4.59545898 38.01147461 C-7.42358398 37.19018555 -7.42358398 37.19018555 -9.32202148 35.27124023 C-10.42358398 33.19018555 -10.42358398 33.19018555 -10.29858398 30.62768555 C-9.38311314 28.07744535 -8.49057692 26.89770145 -6.42358398 25.19018555 C-7.53733398 24.90143555 -8.65108398 24.61268555 -9.79858398 24.31518555 C-13.42358398 23.19018555 -13.42358398 23.19018555 -15.42358398 21.19018555 C-15.97990638 15.96075507 -15.97990638 15.96075507 -14.21655273 13.51831055 C-8.17279722 9.04145461 4.72597234 12.63483287 11.90063477 13.47802734 C13.0665918 13.61398315 13.0665918 13.61398315 14.25610352 13.75268555 C15.28840088 13.87836914 15.28840088 13.87836914 16.34155273 14.0065918 C19.09217901 14.23255541 21.8178534 14.21781558 24.57641602 14.19018555 C23.71363037 14.11501709 22.85084473 14.03984863 21.96191406 13.96240234 C18.75720755 13.67675748 15.55391112 13.37908639 12.35107422 13.07324219 C10.96545023 12.94341591 9.57936924 12.81837376 8.19287109 12.69824219 C6.19848505 12.52459983 4.20575672 12.33223868 2.21313477 12.1394043 C1.01390381 12.02943115 -0.18532715 11.91945801 -1.42089844 11.80615234 C-4.42358398 11.19018555 -4.42358398 11.19018555 -6.35400391 9.85742188 C-7.42358398 8.19018555 -7.42358398 8.19018555 -7.17358398 4.56518555 C-6.02989514 -0.58141425 -5.00573239 0.05229269 0 0 Z " fill="#F6D099" transform="translate(390.423583984375,357.809814453125)"/>
<path d="M0 0 C0.82636963 -0.0213501 1.65273926 -0.0427002 2.50415039 -0.06469727 C4.8359375 -0.078125 4.8359375 -0.078125 8.625 0.25 C10.77262184 3.47143276 11.186068 4.5095467 10.625 8.25 C7.37184321 11.49175786 4.35977844 11.7875862 -0.109375 12.19921875 C-1.40488281 12.32490234 -2.70039062 12.45058594 -4.03515625 12.58007812 C-5.39841305 12.69949824 -6.76169466 12.8186353 -8.125 12.9375 C-9.5040179 13.06717755 -10.88292638 13.19802431 -12.26171875 13.33007812 C-15.63191297 13.64824331 -19.00276346 13.95440655 -22.375 14.25 C-10.04367603 13.72621487 -10.04367603 13.72621487 2.25 12.6875 C5.35509102 12.35578275 8.44062271 12.10456048 11.5625 12 C12.62791016 11.96132813 12.62791016 11.96132813 13.71484375 11.921875 C16.23633617 12.3550148 17.09431183 13.23420142 18.625 15.25 C19.27071705 20.41573642 19.27071705 20.41573642 17.3531189 22.89326477 C15.31475886 24.49356836 14.16188978 24.72429428 11.60009766 24.95776367 C10.79561188 25.03762009 9.9911261 25.1174765 9.16226196 25.19975281 C8.29660614 25.27176407 7.43095032 25.34377533 6.5390625 25.41796875 C5.64512787 25.50250809 4.75119324 25.58704742 3.83016968 25.67414856 C0.97110985 25.94116352 -1.88925608 26.18925164 -4.75 26.4375 C-6.66938037 26.61535827 -8.5886532 26.79438126 -10.5078125 26.97460938 C-29.59331307 28.73518499 -29.59331307 28.73518499 -32.1875 27.125 C-33.92698782 24.37844028 -33.77269128 22.43153026 -33.375 19.25 C-32.125 17.375 -32.125 17.375 -30.375 16.25 C-29.055 16.25 -27.735 16.25 -26.375 16.25 C-26.375 15.59 -26.375 14.93 -26.375 14.25 C-27.344375 14.12625 -28.31375 14.0025 -29.3125 13.875 C-30.323125 13.66875 -31.33375 13.4625 -32.375 13.25 C-33.77435013 10.45129973 -33.62765405 8.34501208 -33.375 5.25 C-31.42888392 2.42813168 -29.64255638 1.89584866 -26.375 1.25 C-17.6159812 0.39002361 -8.79707972 0.12161088 0 0 Z " fill="#FAD098" transform="translate(118.375,357.75)"/>
<path d="M0 0 C0.79669098 0.00027191 1.59338196 0.00054382 2.41421509 0.00082397 C20.82434176 0.02969264 38.55373749 1.63482716 56.625 5.1875 C56.955 4.1975 57.285 3.2075 57.625 2.1875 C57.955 3.1775 58.285 4.1675 58.625 5.1875 C61.64782643 6.22297047 61.64782643 6.22297047 65.1875 6.875 C66.98380859 7.25205078 66.98380859 7.25205078 68.81640625 7.63671875 C69.74324219 7.81847656 70.67007813 8.00023437 71.625 8.1875 C71.625 11.4875 71.625 14.7875 71.625 18.1875 C65.85064423 17.55527127 60.20048658 16.56682828 54.49658203 15.47338867 C30.23083922 10.88692269 6.52287808 8.91969938 -18.125 8.875 C-19.58410797 8.86948624 -19.58410797 8.86948624 -21.07269287 8.86386108 C-30.83295367 8.84457285 -40.52565199 9.01677222 -50.23828125 10.04296875 C-50.94051819 10.11496994 -51.64275513 10.18697113 -52.36627197 10.26115417 C-57.39806239 10.86483737 -62.02056644 12.19289694 -66.8125 13.8125 C-76.01380422 16.8066266 -84.78144601 16.66138576 -94.375 16.1875 C-94.375 15.8575 -94.375 15.5275 -94.375 15.1875 C-93.26125 15.18492187 -92.1475 15.18234375 -91 15.1796875 C-81.16257418 14.99180114 -73.36413502 13.49266423 -64.3046875 9.7421875 C-44.22420698 1.4960967 -21.4134488 -0.02742721 0 0 Z " fill="#D9E0E2" transform="translate(341.375,288.8125)"/>
<path d="M0 0 C-3.77444595 1.88722297 -8.98888787 -0.82747014 -12.9375 -1.99804688 C-27.71629245 -6.14710916 -42.7063402 -6.37048495 -57.9375 -6.3125 C-59.35573059 -6.31076279 -59.35573059 -6.31076279 -60.8026123 -6.30899048 C-74.7930946 -6.27517921 -88.38104036 -5.60613603 -102.22021484 -3.42333984 C-105.15887195 -2.97580503 -108.10024479 -2.59890761 -111.05078125 -2.23828125 C-121.08660632 -1.01118641 -131.0101465 0.42615557 -140.91796875 2.44921875 C-144 3 -144 3 -148 3 C-148 -0.3 -148 -3.6 -148 -7 C-141.07 -7.99 -141.07 -7.99 -134 -9 C-133.67 -9.99 -133.34 -10.98 -133 -12 C-133 -11.01 -133 -10.02 -133 -9 C-131.741875 -9.28875 -130.48375 -9.5775 -129.1875 -9.875 C-127.45895767 -10.25286739 -125.72975231 -10.6277107 -124 -11 C-123.19175781 -11.17917969 -122.38351563 -11.35835938 -121.55078125 -11.54296875 C-116.16414373 -12.640094 -110.8163315 -13.23113482 -105.33203125 -13.5390625 C-104.59539749 -13.58077072 -103.85876373 -13.62247894 -103.09980774 -13.66545105 C-67.5215212 -15.54667272 -33.04203068 -14.70620684 0 0 Z " fill="#DDE0E2" transform="translate(247,303)"/>
<path d="M0 0 C1.10797244 2.92821287 0.95246538 4.38795112 -0.125 7.3125 C-4.93042925 10.5161195 -10.41683226 10.62452384 -16.0625 11.4375 C-17.23619141 11.61925781 -18.40988281 11.80101562 -19.61914062 11.98828125 C-35.53744184 14.32894909 -35.53744184 14.32894909 -42.125 13.3125 C-44.43782587 9.84326119 -44.54978586 8.39044425 -44.125 4.3125 C-42.37116476 1.74187863 -41.25173753 1.3389482 -38.17333984 0.6965332 C-36.39757568 0.53157349 -36.39757568 0.53157349 -34.5859375 0.36328125 C-32.63107422 0.17475586 -32.63107422 0.17475586 -30.63671875 -0.01757812 C-29.95657715 -0.07631104 -29.27643555 -0.13504395 -28.57568359 -0.19555664 C-26.52681365 -0.37268195 -24.4804088 -0.56823227 -22.43359375 -0.76757812 C-3.21532515 -2.55334645 -3.21532515 -2.55334645 0 0 Z " fill="#FAD098" transform="translate(131.125,385.6875)"/>
<path d="M0 0 C2 2 2 2 2.4375 4.9375 C2 8 2 8 0.12109375 9.5546875 C-4.2517134 11.579642 -8.65026774 12.34426653 -13.375 13.1875 C-14.29539062 13.36474609 -15.21578125 13.54199219 -16.1640625 13.72460938 C-21.16776221 14.65029382 -25.91159732 15.40948887 -31 15 C-33 13 -33 13 -33.265625 11.125 C-33.26046875 10.42375 -33.2553125 9.7225 -33.25 9 C-33.25515625 8.29875 -33.2603125 7.5975 -33.265625 6.875 C-33 5 -33 5 -31 3 C-29.11157227 2.49755859 -29.11157227 2.49755859 -26.81640625 2.1484375 C-25.97577637 2.01912842 -25.13514648 1.88981934 -24.26904297 1.7565918 C-23.37588379 1.6306665 -22.48272461 1.50474121 -21.5625 1.375 C-20.65902832 1.24456299 -19.75555664 1.11412598 -18.82470703 0.97973633 C-5.44202822 -0.86221435 -5.44202822 -0.86221435 0 0 Z " fill="#F9D099" transform="translate(125,398)"/>
<path d="M0 0 C1.64916883 0.08591347 3.29765483 0.18568531 4.9453125 0.296875 C6.22619751 0.3753064 6.22619751 0.3753064 7.53295898 0.45532227 C25.69700692 1.67356942 25.69700692 1.67356942 29.0703125 5.046875 C29.3359375 6.921875 29.3359375 6.921875 29.3203125 9.046875 C29.32804687 10.09875 29.32804687 10.09875 29.3359375 11.171875 C29.0703125 13.046875 29.0703125 13.046875 27.0703125 15.046875 C20.63388897 15.49101735 14.6275021 14.45411982 8.3203125 13.234375 C7.38832031 13.06873047 6.45632813 12.90308594 5.49609375 12.73242188 C4.59761719 12.56162109 3.69914062 12.39082031 2.7734375 12.21484375 C1.96551758 12.06297607 1.15759766 11.9111084 0.32519531 11.75463867 C-2.29598911 10.93190008 -3.92592884 9.92193375 -5.9296875 8.046875 C-6.3046875 4.984375 -6.3046875 4.984375 -5.9296875 2.046875 C-3.9296875 0.046875 -3.9296875 0.046875 0 0 Z " fill="#F8D099" transform="translate(390.9296875,397.953125)"/>
<path d="M0 0 C0.65484375 0.37511719 1.3096875 0.75023437 1.984375 1.13671875 C15.30754271 9.24636562 15.30754271 9.24636562 30.28515625 10.8515625 C38.01158018 8.42802233 45.12498482 4.20498114 52 0 C53 1 53 1 53.0625 3.5625 C53.041875 4.366875 53.02125 5.17125 53 6 C52.43796875 6.08636719 51.8759375 6.17273438 51.296875 6.26171875 C48.33326086 7.21430901 46.60791451 8.78874853 44.25 10.8125 C37.95106179 15.94940861 32.61247817 19.85344262 24.203125 19.3671875 C15.24525567 17.87420928 7.88253678 10.49763608 1 5 C0.01 5.495 0.01 5.495 -1 6 C-1.042721 4.33388095 -1.04063832 2.66617115 -1 1 C-0.67 0.67 -0.34 0.34 0 0 Z " fill="#EEB87D" transform="translate(230,212)"/>
<path d="M0 0 C0.85787109 0.09216797 1.71574219 0.18433594 2.59960938 0.27929688 C3.93282227 0.44075195 3.93282227 0.44075195 5.29296875 0.60546875 C6.6087793 0.74952148 6.6087793 0.74952148 7.95117188 0.89648438 C12.80847096 1.43779893 17.64645735 2.07413213 22.48046875 2.79296875 C22.15046875 3.78296875 21.82046875 4.77296875 21.48046875 5.79296875 C20.82304687 5.67179687 20.165625 5.550625 19.48828125 5.42578125 C10.19449535 3.78866449 0.86114034 2.77272778 -8.51953125 1.79296875 C-5.44263913 -0.02167594 -3.53472904 -0.40225194 0 0 Z " fill="#3EBFAC" transform="translate(396.51953125,396.20703125)"/>
<path d="M0 0 C2.31 0 4.62 0 7 0 C6.67 2.31 6.34 4.62 6 7 C4.02 7 2.04 7 0 7 C-1.125 2.25 -1.125 2.25 0 0 Z " fill="#F6F0E1" transform="translate(381,386)"/>
<path d="M0 0 C2.31 0 4.62 0 7 0 C8.125 4.75 8.125 4.75 7 7 C5.02 7 3.04 7 1 7 C0.67 4.69 0.34 2.38 0 0 Z " fill="#F6F0E1" transform="translate(124,386)"/>
<path d="M0 0 C1.32 0 2.64 0 4 0 C4 2.64 4 5.28 4 8 C2.35 8 0.7 8 -1 8 C-1.04241723 5.66705225 -1.04092937 3.33297433 -1 1 C-0.67 0.67 -0.34 0.34 0 0 Z " fill="#FEFBF7" transform="translate(378,372)"/>
<path d="M0 0 C2.475 0.495 2.475 0.495 5 1 C5 2.98 5 4.96 5 7 C3.35 7.33 1.7 7.66 0 8 C0 5.36 0 2.72 0 0 Z " fill="#FEFCF8" transform="translate(130,372)"/>
<path d="M0 0 C2.31 0.33 4.62 0.66 7 1 C6.67 2.65 6.34 4.3 6 6 C4.02 6 2.04 6 0 6 C0 4.02 0 2.04 0 0 Z " fill="#F3F2E6" transform="translate(385,400)"/>
<path d="M0 0 C0 1.98 0 3.96 0 6 C-1.98 6 -3.96 6 -6 6 C-6.33 4.35 -6.66 2.7 -7 1 C-4 0 -4 0 0 0 Z " fill="#F3F2E6" transform="translate(127,400)"/>
<path d="M0 0 C1.65 0 3.3 0 5 0 C5 2.31 5 4.62 5 7 C3.35 7 1.7 7 0 7 C0 4.69 0 2.38 0 0 Z " fill="#FEF8F0" transform="translate(122,360)"/>
<path d="M0 0 C1.32 0 2.64 0 4 0 C4 2.31 4 4.62 4 7 C2.68 7 1.36 7 0 7 C0 4.69 0 2.38 0 0 Z " fill="#FFFDFA" transform="translate(385,360)"/>
</svg>
